<svg id="Layer_5" data-name="Layer 5" xmlns="http://www.w3.org/2000/svg" viewBox="0 0 345.86 276.56"><defs><style>.cls-1{fill:#401cc4;}.cls-2{fill:#1f8fb2;}.cls-3{fill:#901cba;}.cls-4{fill:#3f0082;}.cls-5{fill:#530d84;}</style></defs><title>bundlevoLogo</title><polygon class="cls-1" points="130.47 36.66 130.47 58.16 86.36 66.89 69.41 70.16 69.41 36.66 130.47 36.66"/><polygon class="cls-2" points="197.79 56.75 167.15 50.64 136.72 57.29 136.47 57.34 136.47 16.22 197.78 16.22 197.79 56.75"/><polygon class="cls-3" points="268.13 0 268.13 71.16 203.82 58.34 203.82 0 268.13 0"/><path class="cls-4" d="M31.38,284.58H56.2q8.84,0,13.43,4.25t4.59,12.24a16.62,16.62,0,0,1-1.74,8,14.65,14.65,0,0,1-5.31,5.4,20.18,20.18,0,0,1,6.08,2.08A13.23,13.23,0,0,1,77.32,320a12.89,12.89,0,0,1,2.25,4.59,21.07,21.07,0,0,1,.68,5.44,19.24,19.24,0,0,1-1.57,8,16.23,16.23,0,0,1-4.42,5.87,18.88,18.88,0,0,1-6.93,3.57,32.71,32.71,0,0,1-9.18,1.19H31.38V284.58ZM48,309.74H51.1q7.82,0,7.82-6.21t-7.82-6.21H48v12.41Zm0,26H51.7q6.29,0,9-1.62a6.3,6.3,0,0,0,0-10.37q-2.72-1.61-9-1.61H48v13.6Z" transform="translate(-31.38 -73.72)"/><path class="cls-4" d="M97.34,305.06v24.57q0,8.08,7.82,8.08t7.82-8.08V305.06h15.38V332.6q0,8.84-5.82,13.26t-17.38,4.42q-11.56,0-17.38-4.42T82,332.6V305.06H97.34Z" transform="translate(-31.38 -73.72)"/><path class="cls-4" d="M113.32,305.06h15.39v5.53a16.84,16.84,0,0,1,6.38-5.14,20,20,0,0,1,7.56-1.32,18.92,18.92,0,0,1,7.86,1.49,15.69,15.69,0,0,1,5.57,4.21,12.12,12.12,0,0,1,2.55,4.93,25.7,25.7,0,0,1,.68,6.21v27.71H143.92v-22a23.77,23.77,0,0,0-.47-5.23,6.48,6.48,0,0,0-1.66-3.19,5.83,5.83,0,0,0-2.29-1.45,8.55,8.55,0,0,0-2.72-.42,7.61,7.61,0,0,0-6,2.34q-2.08,2.34-2.08,6.67v23.29H113.32V305.06Z" transform="translate(-31.38 -73.72)"/><path class="cls-4" d="M193.22,278.12h15.47v70.55H193.22v-4.84A16.14,16.14,0,0,1,179.87,350a21.22,21.22,0,0,1-8.75-1.79,21.63,21.63,0,0,1-7-4.93,22.52,22.52,0,0,1-4.63-7.39,26.07,26.07,0,0,1-.08-18.06,22.23,22.23,0,0,1,4.46-7.35,21.11,21.11,0,0,1,15.81-6.8,17.76,17.76,0,0,1,13.51,5.7V278.12Zm-19.38,48.62a10.18,10.18,0,0,0,2.85,7.14,9.32,9.32,0,0,0,3.15,2.13,10.13,10.13,0,0,0,4,.76,9.92,9.92,0,0,0,3.87-.76,9.36,9.36,0,0,0,3.15-2.12,11,11,0,0,0,2.13-3.14,9.2,9.2,0,0,0,.81-3.83,9.49,9.49,0,0,0-.81-3.87,10.85,10.85,0,0,0-2.12-3.19,9.4,9.4,0,0,0-3.15-2.12,10.16,10.16,0,0,0-7.73,0,9.36,9.36,0,0,0-3.15,2.13,11.19,11.19,0,0,0-2.12,3.1A8.88,8.88,0,0,0,173.84,326.74Z" transform="translate(-31.38 -73.72)"/><path class="cls-4" d="M229.43,278.12v70.55H214V278.12h15.39Z" transform="translate(-31.38 -73.72)"/><path class="cls-4" d="M247,329.46q0,9.94,9.35,9.95a8.35,8.35,0,0,0,7.57-4.08h14.88q-4.51,15-22.53,15a29.57,29.57,0,0,1-10.11-1.66,22.57,22.57,0,0,1-7.86-4.72,21,21,0,0,1-5.06-7.31,24.35,24.35,0,0,1-1.79-9.52,26.93,26.93,0,0,1,1.7-9.82,20.65,20.65,0,0,1,4.85-7.44,21.46,21.46,0,0,1,7.61-4.72,28.76,28.76,0,0,1,10.07-1.66,28.16,28.16,0,0,1,9.95,1.66,20.16,20.16,0,0,1,7.48,4.8,20.87,20.87,0,0,1,4.67,7.69,30.49,30.49,0,0,1,1.62,10.24v1.62H247Zm18-8.92a9.26,9.26,0,0,0-3.14-5.19,9.75,9.75,0,0,0-11.6-.08,8.46,8.46,0,0,0-2.85,5.27H265Z" transform="translate(-31.38 -73.72)"/><path class="cls-4" d="M291.73,305.06l10.37,22.36,10.54-22.36h17.17l-22.7,43.61H296.83l-22.44-43.61h17.34Z" transform="translate(-31.38 -73.72)"/><path class="cls-4" d="M324.88,326.48a21.2,21.2,0,0,1,2-9.05,22.22,22.22,0,0,1,5.44-7.31,25.87,25.87,0,0,1,8.29-4.89,29.89,29.89,0,0,1,10.5-1.79,30.32,30.32,0,0,1,10.41,1.74A25.8,25.8,0,0,1,369.8,310a21.75,21.75,0,0,1,5.48,7.4,22.6,22.6,0,0,1,2,9.48,22.2,22.2,0,0,1-2,9.48,22.5,22.5,0,0,1-5.48,7.39,24.55,24.55,0,0,1-8.37,4.8,32,32,0,0,1-10.58,1.7,30.63,30.63,0,0,1-10.37-1.7,23.92,23.92,0,0,1-8.2-4.84,22.46,22.46,0,0,1-5.4-7.52A23.58,23.58,0,0,1,324.88,326.48Zm16.23,0.17a9.86,9.86,0,0,0,.81,4,10.76,10.76,0,0,0,2.13,3.19,9.32,9.32,0,0,0,3.15,2.13,10.16,10.16,0,0,0,7.73,0,9.36,9.36,0,0,0,3.15-2.12,10.8,10.8,0,0,0,2.13-3.19,9.67,9.67,0,0,0,.81-4,9.47,9.47,0,0,0-.81-3.87,10.85,10.85,0,0,0-2.12-3.19,9.4,9.4,0,0,0-3.15-2.12,10.16,10.16,0,0,0-7.73,0,9.36,9.36,0,0,0-3.15,2.13,11,11,0,0,0-2.12,3.15A9.16,9.16,0,0,0,341.12,326.65Z" transform="translate(-31.38 -73.72)"/><path class="cls-5" d="M301.68,193.58v57.29L201.09,266.94V146.13L211.18,187a3,3,0,0,0,2.77,2.27Z" transform="translate(-31.38 -73.72)"/><path class="cls-4" d="M195.68,146.17V266.94L95.09,250.87V193.58l87.74-4.34A3,3,0,0,0,185.6,187Z" transform="translate(-31.38 -73.72)"/><polygon class="cls-4" points="162.29 57.91 149.29 110.53 61.7 114.87 58.7 115.01 48.3 115.53 58.7 85.41 60.2 81.06 61.3 77.91 86.89 72.84 133.72 63.57 162.29 57.91"/><polygon class="cls-4" points="285.7 115.53 275.3 115.01 272.3 114.87 184.71 110.53 171.71 57.91 272.7 77.91 273.8 81.06 275.3 85.41 285.7 115.53"/></svg>