<svg id="Layer_5" data-name="Layer 5" xmlns="http://www.w3.org/2000/svg" viewBox="0 0 423.71 315.68"><defs><style>.cls-1{fill:#fff;}</style></defs><title>bundlevoLogoWhite</title><path class="cls-1" d="M210.86,85.55v19.68a1,1,0,0,1-.81,1l-43.3,8.57-15.77,3a1,1,0,0,1-1.19-1V85.55a1,1,0,0,1,1-1h59.07A1,1,0,0,1,210.86,85.55Z" transform="translate(-37.46 -47.89)"/><path class="cls-1" d="M278,104.4l-29.25-5.83a1,1,0,0,0-.41,0l-30.22,6.61-0.25,0V65.11a1,1,0,0,1,1-1h59.31a1,1,0,0,1,1,1v38.31A1,1,0,0,1,278,104.4Z" transform="translate(-37.46 -47.89)"/><path class="cls-1" d="M350.52,48.89v68.94a1,1,0,0,1-1.2,1L287,106.39a1,1,0,0,1-.8-1V48.89a1,1,0,0,1,1-1h62.31A1,1,0,0,1,350.52,48.89Z" transform="translate(-37.46 -47.89)"/><path class="cls-1" d="M37.46,283.08H67.86q10.83,0,16.45,5.21t5.62,15a20.36,20.36,0,0,1-2.13,9.84,18,18,0,0,1-6.51,6.61,24.72,24.72,0,0,1,7.45,2.55,16.2,16.2,0,0,1,5,4.22,15.79,15.79,0,0,1,2.76,5.62,25.81,25.81,0,0,1,.83,6.66,23.58,23.58,0,0,1-1.93,9.79A19.89,19.89,0,0,1,90,355.76a23.13,23.13,0,0,1-8.49,4.37,40.07,40.07,0,0,1-11.25,1.46H37.46V283.08ZM57.87,313.9h3.75q9.58,0,9.58-7.6t-9.58-7.6H57.87v15.2Zm0,31.86h4.48q7.71,0,11-2a7.72,7.72,0,0,0,0-12.7q-3.33-2-11-2H57.87v16.66Z" transform="translate(-37.46 -47.89)"/><path class="cls-1" d="M118.26,308.17v30.1q0,9.89,9.58,9.89t9.58-9.89v-30.1h18.85v33.74q0,10.83-7.13,16.25t-21.3,5.41q-14.16,0-21.3-5.41t-7.13-16.25V308.17h18.85Z" transform="translate(-37.46 -47.89)"/><path class="cls-1" d="M137.84,308.17h18.85v6.77a20.63,20.63,0,0,1,7.81-6.3,24.44,24.44,0,0,1,9.27-1.61,23.18,23.18,0,0,1,9.63,1.82,19.23,19.23,0,0,1,6.82,5.16,14.85,14.85,0,0,1,3.12,6,31.48,31.48,0,0,1,.83,7.6v33.95H175.33v-27a29.12,29.12,0,0,0-.57-6.4,7.94,7.94,0,0,0-2-3.9,7.15,7.15,0,0,0-2.81-1.77,10.48,10.48,0,0,0-3.33-.52q-4.79,0-7.34,2.86t-2.55,8.17v28.53H137.84V308.17Z" transform="translate(-37.46 -47.89)"/><path class="cls-1" d="M235.72,275.16h19v86.43h-19v-5.94q-6,7.6-16.35,7.6a26,26,0,0,1-10.73-2.19,26.5,26.5,0,0,1-8.54-6,27.59,27.59,0,0,1-5.68-9.06,31.94,31.94,0,0,1-.1-22.13,27.24,27.24,0,0,1,5.47-9,25.87,25.87,0,0,1,19.37-8.33,21.76,21.76,0,0,1,16.56,7V275.16ZM212,334.73a12.47,12.47,0,0,0,3.49,8.75,11.42,11.42,0,0,0,3.85,2.6,12.41,12.41,0,0,0,4.84.94,12.15,12.15,0,0,0,4.74-.94,11.47,11.47,0,0,0,3.85-2.6,13.47,13.47,0,0,0,2.6-3.85,11.26,11.26,0,0,0,1-4.69,11.63,11.63,0,0,0-1-4.74,13.3,13.3,0,0,0-2.6-3.9,11.52,11.52,0,0,0-3.85-2.6,12.45,12.45,0,0,0-9.48,0,11.47,11.47,0,0,0-3.85,2.6,13.71,13.71,0,0,0-2.6,3.8A10.88,10.88,0,0,0,212,334.73Z" transform="translate(-37.46 -47.89)"/><path class="cls-1" d="M280.08,275.16v86.43H261.23V275.16h18.85Z" transform="translate(-37.46 -47.89)"/><path class="cls-1" d="M301.64,338.06q0,12.18,11.45,12.18a10.23,10.23,0,0,0,9.27-5h18.22q-5.52,18.33-27.6,18.33a36.23,36.23,0,0,1-12.39-2,27.65,27.65,0,0,1-9.63-5.78,25.73,25.73,0,0,1-6.19-9,29.83,29.83,0,0,1-2.19-11.66,33,33,0,0,1,2.08-12A25.29,25.29,0,0,1,290.6,314a26.29,26.29,0,0,1,9.32-5.78,35.24,35.24,0,0,1,12.34-2,34.49,34.49,0,0,1,12.18,2,24.69,24.69,0,0,1,9.16,5.88,25.56,25.56,0,0,1,5.73,9.42,37.35,37.35,0,0,1,2,12.55v2H301.64Zm22.08-10.93a11.35,11.35,0,0,0-3.85-6.35,12,12,0,0,0-14.21-.1,10.37,10.37,0,0,0-3.49,6.46h21.56Z" transform="translate(-37.46 -47.89)"/><path class="cls-1" d="M356.41,308.17l12.7,27.39L382,308.17h21l-27.8,53.42h-12.6l-27.49-53.42h21.24Z" transform="translate(-37.46 -47.89)"/><path class="cls-1" d="M397,334.41a26,26,0,0,1,2.4-11.09,27.22,27.22,0,0,1,6.66-9,31.69,31.69,0,0,1,10.15-6,36.62,36.62,0,0,1,12.86-2.19,37.14,37.14,0,0,1,12.76,2.13,31.61,31.61,0,0,1,10.21,5.94,26.65,26.65,0,0,1,6.72,9.06,27.68,27.68,0,0,1,2.4,11.61,27.19,27.19,0,0,1-2.45,11.61A27.56,27.56,0,0,1,452,355.6a30.07,30.07,0,0,1-10.26,5.88,39.22,39.22,0,0,1-13,2.08,37.53,37.53,0,0,1-12.7-2.08,29.3,29.3,0,0,1-10-5.94,27.51,27.51,0,0,1-6.61-9.22A28.89,28.89,0,0,1,397,334.41Zm19.89,0.21a12.08,12.08,0,0,0,1,4.95,13.19,13.19,0,0,0,2.6,3.9,11.42,11.42,0,0,0,3.85,2.6,12.45,12.45,0,0,0,9.48,0,11.47,11.47,0,0,0,3.85-2.6,13.23,13.23,0,0,0,2.6-3.9,11.84,11.84,0,0,0,1-4.84,11.61,11.61,0,0,0-1-4.74,13.3,13.3,0,0,0-2.6-3.9,11.52,11.52,0,0,0-3.85-2.6,12.45,12.45,0,0,0-9.48,0,11.47,11.47,0,0,0-3.85,2.6,13.45,13.45,0,0,0-2.6,3.85A11.22,11.22,0,0,0,416.91,334.62Z" transform="translate(-37.46 -47.89)"/><path class="cls-1" d="M352.68,171.7v55.49a1,1,0,0,1-.84,1l-98.59,15.75a1,1,0,0,1-1.16-1V124.22a0.11,0.11,0,0,1,.22,0l9.87,39.94a3,3,0,0,0,2.77,2.27l86.78,4.29A1,1,0,0,1,352.68,171.7Z" transform="translate(-37.46 -47.89)"/><path class="cls-1" d="M244.68,124.26V242.93a1,1,0,0,1-1.16,1l-98.59-15.75a1,1,0,0,1-.84-1V171.7a1,1,0,0,1,1-1l86.79-4.29a3,3,0,0,0,2.77-2.27l9.86-39.9A0.11,0.11,0,0,1,244.68,124.26Z" transform="translate(-37.46 -47.89)"/><path class="cls-1" d="M241.3,108.32l-12.44,50.37a1,1,0,0,1-.92.76l-86.85,4.3-3,.14-8.93.45a1,1,0,0,1-1-1.33l9.93-28.72,1.5-4.35,0.9-2.61a1,1,0,0,1,.75-0.65l25-5,46.84-9.27,27-5.35A1,1,0,0,1,241.3,108.32Z" transform="translate(-37.46 -47.89)"/><path class="cls-1" d="M368.6,163a1,1,0,0,1-1,1.33l-8.93-.45-3-.14-86.85-4.3a1,1,0,0,1-.92-0.76l-12.44-50.37a1,1,0,0,1,1.17-1.22l98.89,19.58a1,1,0,0,1,.75.65l0.9,2.61,1.5,4.35Z" transform="translate(-37.46 -47.89)"/></svg>