<svg id="Text_Onl_y" data-name="Text Onl;y" xmlns="http://www.w3.org/2000/svg" viewBox="0 0 305.17 63.67"><defs><style>.cls-1{fill:#3f0082;}</style></defs><title>bundlevoLogoText</title><path class="cls-1" d="M88.35,168.62h21.9q7.8,0,11.85,3.75t4.05,10.8a14.66,14.66,0,0,1-1.54,7.09,12.92,12.92,0,0,1-4.69,4.76,17.8,17.8,0,0,1,5.36,1.84,11.67,11.67,0,0,1,3.6,3,11.38,11.38,0,0,1,2,4.05,18.59,18.59,0,0,1,.6,4.8,17,17,0,0,1-1.39,7,14.32,14.32,0,0,1-3.9,5.17,16.68,16.68,0,0,1-6.11,3.15,28.91,28.91,0,0,1-8.1,1H88.35V168.62Zm14.7,22.2h2.7q6.9,0,6.9-5.48t-6.9-5.47H103v11Zm0,22.95h3.23q5.55,0,7.95-1.42a5.56,5.56,0,0,0,0-9.15q-2.4-1.42-7.95-1.43H103v12Z" transform="translate(-88.35 -162.92)"/><path class="cls-1" d="M146.55,186.69v21.67q0,7.13,6.9,7.13t6.9-7.12V186.69h13.58V211q0,7.8-5.14,11.7t-15.34,3.9q-10.2,0-15.34-3.9T133,211v-24.3h13.58Z" transform="translate(-88.35 -162.92)"/><path class="cls-1" d="M160.65,186.69h13.58v4.88a14.86,14.86,0,0,1,5.63-4.54,17.61,17.61,0,0,1,6.68-1.16,16.7,16.7,0,0,1,6.94,1.31,13.84,13.84,0,0,1,4.91,3.71,10.69,10.69,0,0,1,2.25,4.35,22.74,22.74,0,0,1,.6,5.47v24.45H187.65V205.74a20.88,20.88,0,0,0-.41-4.61,5.72,5.72,0,0,0-1.46-2.81,5.16,5.16,0,0,0-2-1.28,7.55,7.55,0,0,0-2.4-.37,6.71,6.71,0,0,0-5.29,2.06,8.56,8.56,0,0,0-1.84,5.89v20.55H160.65V186.69Z" transform="translate(-88.35 -162.92)"/><path class="cls-1" d="M231.15,162.92H244.8v62.25H231.15v-4.28a14.24,14.24,0,0,1-11.77,5.48,18.72,18.72,0,0,1-7.73-1.58,19.09,19.09,0,0,1-6.15-4.35,19.89,19.89,0,0,1-4.09-6.53,23,23,0,0,1-.08-15.94,19.64,19.64,0,0,1,3.94-6.49,18.64,18.64,0,0,1,14-6,15.67,15.67,0,0,1,11.92,5v-27.6ZM214,205.82a9,9,0,0,0,2.51,6.3,8.24,8.24,0,0,0,2.77,1.88,8.94,8.94,0,0,0,3.49.67,8.75,8.75,0,0,0,3.41-.67,8.28,8.28,0,0,0,2.78-1.87,9.74,9.74,0,0,0,1.88-2.78,8.1,8.1,0,0,0,.71-3.37,8.35,8.35,0,0,0-.71-3.41,9.58,9.58,0,0,0-1.87-2.81,8.28,8.28,0,0,0-2.78-1.87,9,9,0,0,0-6.83,0,8.24,8.24,0,0,0-2.77,1.88,9.83,9.83,0,0,0-1.87,2.74A7.82,7.82,0,0,0,214,205.82Z" transform="translate(-88.35 -162.92)"/><path class="cls-1" d="M263.1,162.92v62.25H249.52V162.92H263.1Z" transform="translate(-88.35 -162.92)"/><path class="cls-1" d="M278.62,208.22q0,8.78,8.25,8.78a7.37,7.37,0,0,0,6.67-3.6h13.13q-4,13.2-19.87,13.2a26.12,26.12,0,0,1-8.92-1.46,19.92,19.92,0,0,1-6.94-4.16,18.54,18.54,0,0,1-4.46-6.45,21.49,21.49,0,0,1-1.57-8.4,23.75,23.75,0,0,1,1.5-8.66,18.21,18.21,0,0,1,4.27-6.56,18.94,18.94,0,0,1,6.71-4.16,25.4,25.4,0,0,1,8.89-1.46,24.86,24.86,0,0,1,8.77,1.46,17.78,17.78,0,0,1,6.6,4.24,18.44,18.44,0,0,1,4.13,6.79,26.9,26.9,0,0,1,1.42,9v1.42H278.62Zm15.9-7.87a8.18,8.18,0,0,0-2.78-4.58,8.61,8.61,0,0,0-10.24-.07,7.47,7.47,0,0,0-2.51,4.65h15.53Z" transform="translate(-88.35 -162.92)"/><path class="cls-1" d="M318.07,186.69l9.15,19.72,9.3-19.72h15.15l-20,38.47h-9.08l-19.8-38.47h15.3Z" transform="translate(-88.35 -162.92)"/><path class="cls-1" d="M347.32,205.59a18.72,18.72,0,0,1,1.72-8,19.62,19.62,0,0,1,4.8-6.45,22.83,22.83,0,0,1,7.31-4.31,26.39,26.39,0,0,1,9.26-1.58,26.76,26.76,0,0,1,9.19,1.54,22.77,22.77,0,0,1,7.35,4.27,19.21,19.21,0,0,1,4.84,6.53,20,20,0,0,1,1.72,8.36,19.59,19.59,0,0,1-1.76,8.36,19.85,19.85,0,0,1-4.84,6.53,21.64,21.64,0,0,1-7.39,4.24,28.24,28.24,0,0,1-9.34,1.5,27,27,0,0,1-9.15-1.5,21.09,21.09,0,0,1-7.24-4.27,19.82,19.82,0,0,1-4.76-6.64A20.82,20.82,0,0,1,347.32,205.59Zm14.32,0.15a8.71,8.71,0,0,0,.71,3.56,9.52,9.52,0,0,0,1.88,2.81A8.24,8.24,0,0,0,367,214a9,9,0,0,0,6.82,0,8.26,8.26,0,0,0,2.78-1.87,9.56,9.56,0,0,0,1.88-2.81,8.54,8.54,0,0,0,.71-3.49,8.36,8.36,0,0,0-.71-3.41,9.59,9.59,0,0,0-1.87-2.81,8.27,8.27,0,0,0-2.78-1.87,9,9,0,0,0-6.82,0,8.25,8.25,0,0,0-2.78,1.88,9.69,9.69,0,0,0-1.87,2.78A8.08,8.08,0,0,0,361.64,205.74Z" transform="translate(-88.35 -162.92)"/></svg>