<svg xmlns="http://www.w3.org/2000/svg" viewBox="0 0 207.06 150.19"><defs><style>.cls-1{isolation:isolate;}.cls-2{fill:#55b5e3;}.cls-3{fill:#6d4ea0;}.cls-4{fill:#5687c6;}.cls-5{fill:#fff;}.cls-6,.cls-7{fill:#d1d3d4;}.cls-7{mix-blend-mode:multiply;}.cls-8{fill:#e9237a;}.cls-9{fill:#ffcf34;}.cls-10{fill:#28abe2;}.cls-11{fill:#0492ca;}.cls-12{fill:#c51d68;}</style></defs><title>bundlevoLogo(primaries)</title><g class="cls-1"><g id="Layer_1" data-name="Layer 1"><polygon id="_Path_" data-name="&lt;Path&gt;" class="cls-2" points="57.49 50.17 57.49 82.93 103.44 109.46 121.03 99.31 121.03 66.55 103.44 76.7 57.49 50.17"/><path id="_Compound_Path_" data-name="&lt;Compound Path&gt;" d="M300,237.49l-48.84-28.2V169.88L300,198.07l20.47-11.82v39.41ZM256.92,206L300,230.84l14.71-8.49V196.24L300,204.73l-43.08-24.87V206Z" transform="translate(-196.56 -124.7)"/><polygon id="_Path_2" data-name="&lt;Path&gt;" class="cls-3" points="121.03 99.31 149.4 82.93 149.4 29.86 131.82 19.71 103.44 36.09 121.03 46.24 121.03 99.31"/><path id="_Compound_Path_2" data-name="&lt;Compound Path&gt;" d="M314.71,229V172.6l-20.47-11.81,34.14-19.71,20.47,11.82v56.4Zm-8.95-68.21,14.71,8.49V219L343.08,206V156.22l-14.7-8.49Z" transform="translate(-196.56 -124.7)"/><polygon id="_Path_3" data-name="&lt;Path&gt;" class="cls-4" points="131.82 19.71 103.45 3.33 57.49 29.86 57.49 50.17 85.86 66.55 85.86 46.24 131.82 19.71"/><path id="_Compound_Path_3" data-name="&lt;Compound Path&gt;" d="M285.29,196.24l-34.13-19.71V152.89L300,124.7l34.13,19.71-48.84,28.2v23.64Zm-28.37-23,22.61,13.05v-17l43.08-24.87L300,131.35l-43.08,24.87v17Z" transform="translate(-196.56 -124.7)"/><polygon id="_Path_4" data-name="&lt;Path&gt;" class="cls-5" points="88.74 64.88 103.44 73.37 118.15 64.88 118.15 47.9 103.44 39.41 88.74 47.9 88.74 64.88"/><polygon id="_Path_5" data-name="&lt;Path&gt;" class="cls-6" points="118.15 47.9 103.44 56.02 103.44 73.37 118.15 64.88 118.15 47.9"/><polygon id="_Path_6" data-name="&lt;Path&gt;" class="cls-7" points="123.91 44.58 146.52 31.52 146.52 81.27 123.91 94.32 123.91 44.58"/><polygon id="_Path_7" data-name="&lt;Path&gt;" class="cls-7" points="82.98 44.58 60.37 31.52 60.37 48.5 82.98 61.56 82.98 44.58"/><polygon id="_Path_8" data-name="&lt;Path&gt;" class="cls-7" points="103.44 80.03 103.44 106.14 60.37 81.26 60.37 55.16 103.44 80.03"/><path d="M196.56,247.25h12.61c3.11,0,5.55.85,7.1,2.41a6.23,6.23,0,0,1,1.86,4.62v0.08a6.32,6.32,0,0,1-3.57,5.86c3.14,1.2,5.08,3,5.08,6.68V267c0,5-4,7.45-10.17,7.45H196.56V247.25Zm11.33,11c2.64,0,4.31-.85,4.31-2.87v-0.08c0-1.78-1.4-2.79-3.92-2.79h-5.9v5.74h5.51Zm1.59,10.94c2.64,0,4.23-.93,4.23-2.95v-0.08c0-1.82-1.36-3-4.42-3h-6.91v6h7.1Z" transform="translate(-196.56 -124.7)"/><path d="M221.05,262.77V247.25h6v15.37c0,4.43,2.21,6.72,5.86,6.72s5.86-2.21,5.86-6.52V247.25h6v15.33c0,8.23-4.62,12.26-11.92,12.26S221.05,270.77,221.05,262.77Z" transform="translate(-196.56 -124.7)"/><path d="M247.86,247.25h5.51L266.11,264V247.25H272v27.17h-5.08l-13.16-17.27v17.27h-5.9V247.25Z" transform="translate(-196.56 -124.7)"/><path d="M275.45,247.25H286c8.54,0,14.44,5.86,14.44,13.51v0.08c0,7.65-5.9,13.58-14.44,13.58h-10.6V247.25ZM286,269c4.89,0,8.19-3.3,8.19-8.11v-0.08a7.8,7.8,0,0,0-8.19-8.19h-4.62V269H286Z" transform="translate(-196.56 -124.7)"/><path d="M303.48,247.25h6V269H323v5.43H303.48V247.25Z" transform="translate(-196.56 -124.7)"/><path d="M325.79,247.25h20.49v5.32H331.73v5.51h12.81v5.32H331.73v5.7h14.75v5.32H325.79V247.25Z" transform="translate(-196.56 -124.7)"/><path d="M348.42,247.25H355l7.1,19.13,7.1-19.13h6.44l-11,27.36h-5.28Z" transform="translate(-196.56 -124.7)"/><path d="M374.73,260.91v-0.08c0-7.72,6.09-14.05,14.48-14.05s14.4,6.25,14.4,14v0.08c0,7.72-6.09,14.05-14.48,14.05S374.73,268.64,374.73,260.91Zm22.63,0v-0.08a8.25,8.25,0,0,0-8.23-8.54,8.13,8.13,0,0,0-8.15,8.46v0.08a8.26,8.26,0,0,0,8.23,8.54A8.12,8.12,0,0,0,397.36,260.91Z" transform="translate(-196.56 -124.7)"/></g><g id="Layer_2" data-name="Layer 2"><polygon id="_Path_9" data-name="&lt;Path&gt;" class="cls-8" points="57.49 50.17 57.49 82.93 103.44 109.46 121.03 99.31 121.03 66.55 103.44 76.7 57.49 50.17"/><path id="_Compound_Path_4" data-name="&lt;Compound Path&gt;" d="M300,237.49l-48.84-28.2V169.88L300,198.07l20.47-11.82v39.41ZM256.92,206L300,230.84l14.71-8.49V196.24L300,204.73l-43.08-24.87V206Z" transform="translate(-196.56 -124.7)"/><polygon id="_Path_10" data-name="&lt;Path&gt;" class="cls-9" points="121.03 99.31 149.4 82.93 149.4 29.86 131.82 19.71 103.44 36.09 121.03 46.24 121.03 99.31"/><path id="_Compound_Path_5" data-name="&lt;Compound Path&gt;" d="M314.71,229V172.6l-20.47-11.81,34.14-19.71,20.47,11.82v56.4Zm-8.95-68.21,14.71,8.49V219L343.08,206V156.22l-14.7-8.49Z" transform="translate(-196.56 -124.7)"/><polygon id="_Path_11" data-name="&lt;Path&gt;" class="cls-10" points="131.82 19.71 103.45 3.33 57.49 29.86 57.49 50.17 85.86 66.55 85.86 46.24 131.82 19.71"/><path id="_Compound_Path_6" data-name="&lt;Compound Path&gt;" d="M285.29,196.24l-34.13-19.71V152.89L300,124.7l34.13,19.71-48.84,28.2v23.64Zm-28.37-23,22.61,13.05v-17l43.08-24.87L300,131.35l-43.08,24.87v17Z" transform="translate(-196.56 -124.7)"/><polygon id="_Path_12" data-name="&lt;Path&gt;" class="cls-5" points="88.74 64.88 103.44 73.37 118.15 64.88 118.15 47.9 103.44 39.41 88.74 47.9 88.74 64.88"/><polygon id="_Path_13" data-name="&lt;Path&gt;" class="cls-6" points="118.15 47.9 103.44 56.02 103.44 73.37 118.15 64.88 118.15 47.9"/><polygon id="_Path_14" data-name="&lt;Path&gt;" class="cls-7" points="123.91 44.58 146.52 31.52 146.52 81.27 123.91 94.32 123.91 44.58"/><polygon id="_Path_15" data-name="&lt;Path&gt;" class="cls-11" points="82.98 44.58 60.37 31.52 60.37 48.5 82.98 61.56 82.98 44.58"/><polygon id="_Path_16" data-name="&lt;Path&gt;" class="cls-12" points="103.44 80.03 103.44 106.14 60.37 81.26 60.37 55.16 103.44 80.03"/><path class="cls-5" d="M196.56,247.25h12.61c3.11,0,5.55.85,7.1,2.41a6.23,6.23,0,0,1,1.86,4.62v0.08a6.32,6.32,0,0,1-3.57,5.86c3.14,1.2,5.08,3,5.08,6.68V267c0,5-4,7.45-10.17,7.45H196.56V247.25Zm11.33,11c2.64,0,4.31-.85,4.31-2.87v-0.08c0-1.78-1.4-2.79-3.92-2.79h-5.9v5.74h5.51Zm1.59,10.94c2.64,0,4.23-.93,4.23-2.95v-0.08c0-1.82-1.36-3-4.42-3h-6.91v6h7.1Z" transform="translate(-196.56 -124.7)"/><path class="cls-5" d="M221.05,262.77V247.25h6v15.37c0,4.43,2.21,6.72,5.86,6.72s5.86-2.21,5.86-6.52V247.25h6v15.33c0,8.23-4.62,12.26-11.92,12.26S221.05,270.77,221.05,262.77Z" transform="translate(-196.56 -124.7)"/><path class="cls-5" d="M247.86,247.25h5.51L266.11,264V247.25H272v27.17h-5.08l-13.16-17.27v17.27h-5.9V247.25Z" transform="translate(-196.56 -124.7)"/><path class="cls-5" d="M275.45,247.25H286c8.54,0,14.44,5.86,14.44,13.51v0.08c0,7.65-5.9,13.58-14.44,13.58h-10.6V247.25ZM286,269c4.89,0,8.19-3.3,8.19-8.11v-0.08a7.8,7.8,0,0,0-8.19-8.19h-4.62V269H286Z" transform="translate(-196.56 -124.7)"/><path class="cls-5" d="M303.48,247.25h6V269H323v5.43H303.48V247.25Z" transform="translate(-196.56 -124.7)"/><path class="cls-5" d="M325.79,247.25h20.49v5.32H331.73v5.51h12.81v5.32H331.73v5.7h14.75v5.32H325.79V247.25Z" transform="translate(-196.56 -124.7)"/><path class="cls-5" d="M348.42,247.25H355l7.1,19.13,7.1-19.13h6.44l-11,27.36h-5.28Z" transform="translate(-196.56 -124.7)"/><path class="cls-5" d="M374.73,260.91v-0.08c0-7.72,6.09-14.05,14.48-14.05s14.4,6.25,14.4,14v0.08c0,7.72-6.09,14.05-14.48,14.05S374.73,268.64,374.73,260.91Zm22.63,0v-0.08a8.25,8.25,0,0,0-8.23-8.54,8.13,8.13,0,0,0-8.15,8.46v0.08a8.26,8.26,0,0,0,8.23,8.54A8.12,8.12,0,0,0,397.36,260.91Z" transform="translate(-196.56 -124.7)"/></g></g></svg>